# xmcd
#
# Track frame offsets: 
#        150
#        9988
#        27330
#        38676
#        53860
#        68168
#        80199
#        91801
#        105207
#        121293
#        131397
#        143784
#        155103
#        166052
#        177203
#
# Disc length: 2550 seconds
#
# Revision: 0
# Processed by: cddbd v1.5.2PL0 Copyright (c) Steve Scherf et al.
# Submitted via: ExactAudioCopy v1.1
#
DISCID=b709f40f
DTITLE=Various Artist - Country Jukebox: Always Wanting You [CD2]
DYEAR=2014
DGENRE=Country
TTITLE0=Linda Ronstadt - When Will I Be Loved
TTITLE1=Crystal Gayle - You Never Miss a Real Good Thing (‘Til He Says
TTITLE1=Goodbye)
TTITLE2=Wynn Stewart - It’s Such a Pretty World Today
TTITLE3=Merle Haggard - It’s Not Love (But It’s Not Bad)
TTITLE4=Kenny Rogers - Daytime Friends
TTITLE5=George Jones and Melba Montgomery - We Must Have Been Out of O
TTITLE5=ur Minds
TTITLE6=Wanda Jackson - In the Middle of a Heartache
TTITLE7=The Louvin Brothers - I Love You Best of All
TTITLE8=Billie Jo Spears - Blanket on the Ground
TTITLE9=Sonny James - You’re the Only World I Know
TTITLE10=Jimmy Wakely - I Love You So Much It Hurts
TTITLE11=Jean Shepard and Ferlin Husky -  A Dear John Letter
TTITLE12=Hank Thompson - Waiting in the Lobby of Your Heart
TTITLE13=Faron Young - All Right
TTITLE14=Slim Whitman - Indian Love Call
EXTD=
EXTT0=
EXTT1=
EXTT2=
EXTT3=
EXTT4=
EXTT5=
EXTT6=
EXTT7=
EXTT8=
EXTT9=
EXTT10=
EXTT11=
EXTT12=
EXTT13=
EXTT14=
PLAYORDER=
